<?xml version="1.0" standalone="no"?>
<!DOCTYPE svg PUBLIC "-//W3C//DTD SVG 20010904//EN"
 "http://www.w3.org/TR/2001/REC-SVG-20010904/DTD/svg10.dtd">
<svg version="1.0" xmlns="http://www.w3.org/2000/svg"
 width="300.000000pt" height="300.000000pt" viewBox="0 0 300.000000 300.000000"
 preserveAspectRatio="xMidYMid meet">
<metadata>
Created by potrace 1.11, written by Peter Selinger 2001-2013
</metadata>
<g transform="translate(0.000000,300.000000) scale(0.100000,-0.100000)"
fill="#000000" stroke="none">
<path d="M1080 2269 c-99 -42 -137 -196 -100 -408 6 -35 10 -64 8 -65 -2 -1
-21 -8 -43 -15 -77 -25 -181 -82 -231 -126 -137 -119 -109 -246 78 -358 32
-19 86 -45 120 -57 35 -13 67 -26 71 -30 4 -4 3 -38 -3 -76 -22 -136 -15 -238
23 -313 68 -137 229 -121 433 40 34 27 66 49 71 49 6 0 18 -10 29 -21 33 -37
136 -104 202 -132 102 -43 184 -35 238 25 52 56 72 203 48 348 -7 41 -10 78
-6 81 4 4 25 12 47 19 84 27 200 95 251 148 60 63 72 149 29 214 -46 70 -175
153 -293 190 -42 13 -43 13 -37 51 12 70 14 92 15 177 1 133 -35 222 -107 259
-35 18 -119 13 -176 -11 -63 -26 -171 -95 -213 -136 l-32 -31 -38 32 c-119 99
-211 146 -297 152 -34 3 -73 0 -87 -6z m181 -104 c56 -29 146 -92 166 -116 10
-12 3 -26 -37 -72 -27 -31 -58 -70 -69 -86 -18 -25 -32 -31 -113 -46 -51 -9
-103 -19 -115 -22 -23 -5 -27 3 -38 67 -22 121 -1 262 43 297 26 20 102 11
163 -22z m649 13 c38 -41 53 -159 36 -278 -11 -72 -15 -79 -39 -74 -12 2 -33
6 -47 9 -14 3 -47 8 -75 11 -75 10 -78 12 -154 104 -81 97 -82 89 25 166 119
85 211 107 254 62z m-320 -306 c0 -4 -40 -7 -90 -7 -49 0 -90 3 -90 7 0 4 19
30 43 57 l42 50 48 -50 c26 -28 47 -53 47 -57z m112 -157 c26 -38 63 -103 83
-142 l36 -73 -42 -77 c-23 -43 -60 -106 -81 -139 l-38 -61 -136 -1 c-75 -1
-148 1 -163 4 -28 6 -60 50 -145 206 l-37 66 23 49 c26 56 83 155 116 200 27
38 32 39 202 38 l135 0 47 -70z m-474 48 c-13 -32 -84 -153 -89 -153 -8 0 -50
122 -44 128 5 5 104 29 128 31 5 1 7 -2 5 -6z m622 -8 c25 -4 48 -10 52 -13 7
-8 -32 -132 -41 -132 -5 0 -77 124 -90 154 -2 4 5 6 15 3 11 -4 39 -9 64 -12z
m-830 -59 c0 -7 16 -53 35 -102 l35 -89 -31 -85 c-51 -140 -47 -132 -72 -125
-12 4 -64 27 -114 52 -126 60 -190 136 -160 188 32 58 109 112 219 155 73 29
88 30 88 6z m1100 -27 c67 -31 144 -93 162 -129 32 -66 -25 -134 -167 -200
-103 -49 -124 -55 -130 -38 -2 7 -20 56 -39 108 l-35 95 35 95 c19 52 37 100
39 107 5 14 51 0 135 -38z m-970 -278 c0 -5 18 -40 39 -77 22 -38 38 -70 36
-72 -4 -4 -115 17 -127 24 -8 5 34 134 44 134 4 0 8 -4 8 -9z m744 -65 c18
-55 15 -62 -29 -69 -16 -3 -45 -9 -64 -13 l-34 -7 32 54 c18 30 38 66 44 81
14 35 28 23 51 -46z m-695 -162 l98 -16 49 -61 c27 -33 59 -73 72 -89 27 -32
28 -31 -58 -95 -154 -114 -257 -126 -294 -32 -24 60 -24 216 1 302 3 12 11 16
20 13 8 -4 59 -13 112 -22z m736 6 c13 -42 22 -179 15 -232 -9 -62 -32 -113
-55 -122 -64 -24 -189 28 -298 124 l-37 32 53 62 c28 34 61 73 72 88 20 27 37
33 125 43 25 3 59 9 75 14 43 13 43 13 50 -9z m-345 -37 c-1 -5 -20 -29 -43
-55 l-43 -48 -35 38 c-71 76 -73 72 30 72 50 0 91 -3 91 -7z"/>
<path d="M1426 1645 c-73 -37 -103 -107 -80 -184 7 -24 25 -56 40 -72 93 -97
271 -30 276 104 3 75 -34 132 -104 161 -46 20 -82 17 -132 -9z"/>
</g>
</svg>
